<?xml version="1.0"?>
<svg width="511.99998" height="511.99998" xmlns="http://www.w3.org/2000/svg" xmlns:svg="http://www.w3.org/2000/svg">
 <g class="layer">
  <title>Layer 1</title>
  <path d="m512.000039,256.500031c0,51.31641 -15.09766,99.09766 -41.09766,139.16016c-8.61718,13.28906 -18.4414,25.72656 -29.30859,37.15625c-5.23437,5.51562 -10.71875,10.80468 -16.43359,15.82812c-17.12891,15.10156 -36.28907,27.9336 -57.02344,38.04688c-19.15234,9.36328 -39.65234,16.38281 -61.125,20.71875c-8.72656,1.76562 -17.61719,3.09375 -26.63281,3.9414c-8.02735,0.76172 -16.15625,1.14844 -24.37891,1.14844c-8.10937,0 -16.12109,-0.375 -24.03125,-1.11719c-8.90234,-0.82812 -17.67969,-2.11328 -26.29297,-3.83593c-5.42969,-1.07422 -10.80078,-2.32813 -16.10156,-3.76172c-19.10938,-5.10938 -37.33203,-12.38282 -54.39453,-21.53516c-1.77735,-0.94922 -3.55469,-1.93359 -5.30078,-2.92578c-8.12891,-4.60938 -15.97266,-9.64453 -23.51953,-15.08984c-33.1836,-23.94922 -60.40625,-55.64844 -78.99219,-92.44922c-17.50391,-34.64844 -27.36719,-73.82422 -27.36719,-115.28516s9.86328,-80.63672 27.36719,-115.28516c19.96484,-39.51562 49.87109,-73.15234 86.4414,-97.625c6.71875,-4.5 13.66797,-8.6914 20.82813,-12.54687c0.17578,-0.09375 0.36328,-0.19922 0.54297,-0.29297c35.98437,-19.30078 77.12109,-30.25 120.82031,-30.25c22.09766,0 43.53906,2.80078 64,8.05469c0.88672,0.24219 1.76563,0.47265 2.64453,0.71094c2.46485,0.66015 4.91016,1.35937 7.34375,2.08984c58.14844,17.52344 107.58203,55.18359 140.1836,104.85547c3.40625,5.19531 6.63671,10.52344 9.66796,15.96875c20.48829,36.80859 32.16016,79.20312 32.16016,124.32031zm0,0" fill="#51636d" id="svg_91" transform="rotate(-3.58993 256 256.5)"/>
  <path d="m351.407743,128.913301l0,403.1211c-19.15234,9.36328 -39.65234,16.38281 -61.125,20.71875c-8.72656,1.76562 -17.61719,3.09375 -26.63281,3.9414l0,-427.78125l24.98047,-47.29297l14.64062,-27.72265l4.25391,-8.05469l5.73437,10.85547l13.16797,24.92187l24.98047,47.29297zm0,0" fill="#f4ca5f" id="svg_82" transform="rotate(41.4664 307.529 301.269)"/>
  <path d="m489.450622,181.208706c-13.11719,6.94141 -28.06641,10.86719 -43.91797,10.86719c-5.77735,0 -11.45313,-0.51953 -16.94922,-1.52344c-9.57031,-1.74609 -18.62891,-4.93359 -26.9375,-9.34375l43.88672,-83.12109l0.00781,0.01172l43.91016,83.10937zm0,0" fill="#e5d6b9" id="svg_81" transform="rotate(41.4664 445.548 145.082)"/>
  <path d="m313.024677,31.31381l-1.60938,8.76563l-15.63281,85.22265l0,412.92188c-8.72656,1.76562 -17.61719,3.09375 -26.63281,3.9414l0,-427.78125l24.98047,-47.29297l14.64062,-27.72265l4.25391,-8.05469zm0,0" fill="#e2ae2b" id="svg_80" transform="rotate(41.4664 291.087 286.74)"/>
  <path d="m482.16568,140.572132c-5.64062,2.98829 -12.07812,4.6836 -18.90234,4.6836c-2.49609,0 -4.94141,-0.22266 -7.30078,-0.66016c-4.11719,-0.75 -8.01563,-2.12109 -11.58984,-4.02344l18.89062,-35.77734l18.90234,35.77734zm0,0" fill="#3f3f3f" id="svg_78" transform="rotate(41.4664 463.269 125.025)"/>
  <path d="m451.548031,83.752031l-16.95703,92.45312c-9.57031,-1.74609 -18.62891,-4.93359 -26.9375,-9.34375l43.88672,-83.12109l0.00781,0.01172zm0,0" fill="#d1a982" id="svg_79" transform="rotate(41.4664 429.601 129.973)"/>
  <path d="m465.85091,98.619148l-7.30078,39.80078c-4.11719,-0.75 -8.01563,-2.12109 -11.58984,-4.02344l18.89062,-35.77734zm0,0" fill="#282828" id="svg_77" transform="rotate(41.4664 456.406 118.52)"/>
  <path d="m303.051169,141.673964l-4.78906,140.96484l-8.19922,242.0625c-8.90234,-0.82812 -17.67969,-2.11328 -26.29297,-3.83593c-5.42969,-1.07422 -10.80078,-2.32813 -16.10156,-3.76172l-7.94922,-234.46485l-4.78516,-140.96484l68.11719,0zm0,0" fill="#5cbc74" id="svg_86" transform="rotate(-45.0563 268.993 333.188)"/>
  <path d="m137.073428,182.691898c0,1.19532 -0.02344,2.38672 -0.05469,3.58204c-1.5625,56.23437 -86.33203,56.23437 -87.90234,0c-0.03516,-1.19532 -0.04297,-2.38672 -0.04297,-3.58204c0,-17.45703 3.53125,-34.07812 9.94141,-49.21484c7.64453,-18.09766 19.38281,-34.04687 34.05859,-46.6875c26.9375,23.20703 44,57.55078 44,95.90234zm0,0" fill="#e5d6b9" id="svg_90" transform="rotate(-45.0563 93.0734 157.62)"/>
  <path d="m99.531573,244.019394c-21.58984,0 -43.17969,-14.05469 -43.96094,-42.17187c-0.03125,-1.19532 -0.04296,-2.38672 -0.04296,-3.58204c0,-17.45703 3.53515,-34.07812 9.94531,-49.21484c7.64062,-18.09766 19.38281,-34.04687 34.05859,-46.6875c-4.16406,12.64063 -7.49219,28.58984 -9.66797,46.6875c-1.8164,15.13672 -2.82422,31.75781 -2.82422,49.21484c0,1.19532 0,2.38672 0.01172,3.58204c0.22266,28.11718 6.35547,42.17187 12.48047,42.17187zm0,0" fill="#d1a982" id="svg_89" transform="rotate(-45.0563 77.5296 173.191)"/>
  <path d="m120.80559,186.314549c-34.3164,15.23829 -40,-34.98046 -55.58203,-19.38281c-0.17187,0.16797 -0.33203,0.33203 -0.50391,0.48047c-15.41015,14.76953 -30.33984,-0.80469 -21.97265,-30.3125c7.64453,-18.09766 19.38281,-34.04687 34.05859,-46.6875c26.9375,23.20703 44,57.55078 44,95.90234zm0,0" fill="#5cb1f2" id="svg_88" transform="rotate(-45.0563 80.5726 139.821)"/>
  <path d="m77.544802,108.357124c-4.16406,12.64063 -7.49219,28.58984 -9.66797,46.6875c-1.14453,9.55859 -1.96875,19.71484 -2.41797,30.3125c-15.41406,14.76953 -30.34375,-0.80469 -21.97265,-30.3125c7.64062,-18.09766 19.38281,-34.04687 34.05859,-46.6875zm0,0" fill="#5894c9" id="svg_87" transform="rotate(-45.056339263916016 59.310930252075195,149.68474197387695)"/>
  <path d="m268.178649,535.330137c-5.42969,-1.07422 -10.80078,-2.32813 -16.10156,-3.76172l-7.94922,-234.46485l-4.78516,-140.96484l25.6836,0l1.17969,140.96484l1.97265,238.22657zm0,0" fill="#5d9b50" id="svg_85" transform="rotate(-45.0563 253.761 345.734)"/>
  <path d="m217.380328,177.205427l-4.78125,140.96875l-58.54688,0l-4.78516,-140.96875l68.11329,0zm0,0" fill="#e6e6e6" id="svg_84" transform="rotate(-45.0563 183.324 247.69)"/>
  <path d="m182.185598,332.772588l-22.07813,0l-4.78516,-140.96875l25.6875,0l1.17579,140.96875zm0,0" fill="#ccc" id="svg_83" transform="rotate(-45.0563 168.754 262.288)"/>
 </g>
</svg>